<?xml version="1.0" encoding="UTF-8" standalone="no"?>
<svg
   xmlns:dc="http://purl.org/dc/elements/1.1/"
   xmlns:cc="http://creativecommons.org/ns#"
   xmlns:rdf="http://www.w3.org/1999/02/22-rdf-syntax-ns#"
   xmlns:svg="http://www.w3.org/2000/svg"
   xmlns="http://www.w3.org/2000/svg"
   viewBox="0 0 682.66669 682.66669"
   height="682.66669"
   width="682.66669"
   xml:space="preserve"
   id="svg2"
   version="1.1"><metadata
     id="metadata8"><rdf:RDF><cc:Work
         rdf:about=""><dc:format>image/svg+xml</dc:format><dc:type
           rdf:resource="http://purl.org/dc/dcmitype/StillImage" /></cc:Work></rdf:RDF></metadata><defs
     id="defs6" /><g
     transform="matrix(1.3333333,0,0,-1.3333333,0,682.66667)"
     id="g10"><g
       transform="scale(0.1)"
       id="g12"><path
         id="path14"
         style="fill:#3388ff;fill-opacity:1;fill-rule:evenodd;stroke:none"
         d="m 3869.87,2110.09 c 0,-398.69 -103.99,-704.09 -327.07,-916.62 -223.07,-212.54 -567.29,-323.341 -982.89,-323.341 -415.59,0 -759.65,110.801 -982.72,323.341 -223.07,212.53 -327.23,517.93 -327.23,916.62 v 1849.94 h 819.97 V 2175.09 c 0,-215.33 40.61,-371.83 121.23,-469.04 80.59,-97.25 211.68,-155.94 368.75,-155.94 157.08,0 288.33,58.69 368.92,155.94 80.62,97.21 121.07,253.71 121.07,469.04 v 1784.94 h 819.97 z m 364.39,3009.78 -3335.112,0.1 C 404.777,5118.8 0.933594,4720.11 0.015625,4225.68 L 0,900.969 C 0.195313,405.211 405.52,0 901.328,0 H 4223.99 C 4719.92,0 5120,405.41 5120,901.332 V 4224 c 0,492.5 -394.58,890.39 -885.74,895.87" /></g></g></svg>